<svg width="206" height="231" viewBox="0 0 206 231" fill="none" xmlns="http://www.w3.org/2000/svg">
<path d="M143.143 84C143.143 96.1503 133.293 106 121.143 106C108.992 106 99.1426 96.1503 99.1426 84C99.1426 71.8497 108.992 62 121.143 62C133.293 62 143.143 71.8497 143.143 84Z" fill="#FFC131"/>
<ellipse cx="84.1426" cy="147" rx="22" ry="22" transform="rotate(180 84.1426 147)" fill="#24C8DB"/>
<path fill-rule="evenodd" clip-rule="evenodd" d="M166.738 154.548C157.86 149.985 148.023 148.019 138.244 148.956C138.243 148.967 138.242 148.978 138.241 148.989C137.342 160.052 129.958 169.44 119.595 172.948C109.232 176.456 97.6417 173.661 90.1147 166.134C82.5878 158.607 79.7928 147.017 83.3008 136.654C86.8089 126.291 96.1971 118.907 107.26 118.008C107.271 118.007 107.282 118.006 107.293 118.005C108.23 108.226 106.264 98.3893 101.701 89.5111C97.1376 80.6329 90.2329 73.1976 81.8357 68.2426C73.4385 63.2875 63.8945 61.0124 54.4003 61.6901C44.9061 62.3677 35.8588 65.9666 28.8726 72.0004C21.8865 78.0342 17.3109 86.1825 15.7311 95.2901C14.1513 104.398 15.6298 113.793 19.9449 122.138C24.2601 130.483 31.2190 137.346 39.8313 141.703C48.4436 146.06 58.2781 147.698 67.9182 146.385L73.8618 181.84C73.8618 181.84 73.9939 181.84 74.2581 181.84C91.7021 181.84 106.779 187.208 118.693 195.394C130.607 203.581 139.359 214.585 143.943 226.951C148.527 239.317 148.943 252.044 145.190 263.668C141.437 275.292 133.514 284.812 123.421 290.728C113.328 296.643 101.064 299.954 88.8008 299.661C76.5377 299.368 64.4662 295.473 54.7577 288.977L56.4013 321.4C56.4013 321.4 56.5334 321.4 56.7976 321.4C106.029 321.4 143.943 359.314 143.943 408.546C143.943 457.777 106.029 495.691 56.7976 495.691C7.56632 495.691 -30.3477 457.777 -30.3477 408.546C-30.3477 359.314 7.56632 321.4 56.7976 321.4C56.7976 321.4 56.9297 321.4 57.1939 321.4L58.8375 288.977C49.1289 295.473 37.0574 299.368 24.7943 299.661C12.5312 299.954 0.267334 296.643 -9.82572 290.728C-19.9187 284.812 -27.8418 275.292 -31.5949 263.668C-35.3479 252.044 -34.9323 239.317 -30.3482 226.951C-25.7641 214.585 -16.0123 203.581 -4.09839 195.394C7.81548 187.208 22.8924 181.84 40.3364 181.84C40.6006 181.84 40.7327 181.84 40.7327 181.84L46.6763 146.385C56.3164 147.698 66.1509 146.06 74.7632 141.703C83.3755 137.346 90.3344 130.483 94.6496 122.138C98.9647 113.793 100.443 104.398 98.8634 95.2901C97.2836 86.1825 92.708 78.0342 85.7219 72.0004C78.7357 65.9666 69.6884 62.3677 60.1942 61.6901C50.7 61.0124 41.156 63.2875 32.7588 68.2426C24.3616 73.1976 17.4569 80.6329 12.8934 89.5111C8.32989 98.3893 6.36377 108.226 7.30039 118.005C7.31150 118.006 7.32261 118.007 7.33372 118.008C18.3969 118.907 27.7851 126.291 31.2932 136.654C34.8012 147.017 32.0062 158.607 24.4793 166.134C16.9523 173.661 5.36226 176.456 -4.99993 172.948C-15.3621 169.44 -22.7463 160.052 -23.6452 148.989C-23.6462 148.978 -23.6472 148.967 -23.6482 148.956C-33.4273 148.019 -43.2647 149.985 -52.1429 154.548C-60.6235 158.855 -67.9176 165.401 -73.218 173.548C-78.5184 181.695 -81.6113 191.082 -82.2099 200.706C-82.8086 210.33 -81.2929 220.026 -77.8366 228.986C-74.3803 237.946 -69.0937 246.017 -62.4821 252.628C-55.8705 259.24 -47.7994 264.527 -38.8394 267.983C-29.8794 271.44 -20.1836 272.955 -10.5598 272.357C-0.936069 271.758 8.45070 268.665 16.5977 263.365L51.0433 269.309C51.0433 269.309 51.1754 269.309 51.4396 269.309C100.671 269.309 138.585 307.223 138.585 356.454C138.585 405.686 100.671 443.6 51.4396 443.6C2.20833 443.6 -35.7056 405.686 -35.7056 356.454C-35.7056 307.223 2.20833 269.309 51.4396 269.309C51.4396 269.309 51.5717 269.309 51.8359 269.309L86.2815 263.365C94.4285 268.665 103.815 271.758 113.439 272.357C123.063 272.955 132.758 271.44 141.718 267.983C150.678 264.527 158.749 259.24 165.361 252.628C171.972 246.017 177.259 237.946 180.715 228.986C184.172 220.026 185.687 210.33 185.089 200.706C184.490 191.082 181.397 181.695 176.097 173.548C170.796 165.401 163.502 158.855 154.022 154.548C154.012 154.543 154.002 154.539 153.992 154.534L166.738 154.548Z" fill="#FFC131"/>
<circle cx="77.7976" cy="99.4" r="77.7976" fill="#24C8DB"/>
<circle cx="50.2381" cy="126.952" r="50.2381" fill="#FFC131"/>
<circle cx="103.048" cy="25.8095" r="25.8095" fill="#FFC131"/>
</svg>